Coordinates
version=1
nRows=16
nColumns=40
inDegrees=yes

Units are S.I. units (second, meters, Newtons, ...)
If the header above contains a line with 'inDegrees', this indicates whether rotational values are in degrees (yes) or radians (no).

endheader
time	pelvis_tilt	pelvis_list	pelvis_rotation	pelvis_tx	pelvis_ty	pelvis_tz	hip_flexion_r	hip_adduction_r	hip_rotation_r	knee_angle_r	knee_angle_r_beta	ankle_angle_r	subtalar_angle_r	mtp_angle_r	hip_flexion_l	hip_adduction_l	hip_rotation_l	knee_angle_l	knee_angle_l_beta	ankle_angle_l	subtalar_angle_l	mtp_angle_l	lumbar_extension	lumbar_bending	lumbar_rotation	arm_flex_r	arm_add_r	arm_rot_r	elbow_flex_r	pro_sup_r	wrist_flex_r	wrist_dev_r	arm_flex_l	arm_add_l	arm_rot_l	elbow_flex_l	pro_sup_l	wrist_flex_l	wrist_dev_l
      1.54000000	     -4.20830109	      9.63261592	    -84.82934756	      0.18130307	      0.91979547	      1.31676139	     18.81680018	      6.64987944	     -4.11203705	      8.51129100	      0.14855005	      2.52811971	      0.00000000	      0.00000000	     24.90014641	     -3.25631530	      6.22580316	     64.39741579	      1.12394694	     -4.85857564	      0.00000000	      0.00000000	      5.58680454	      2.26160135	     -1.07565779	      0.00000000	      0.00000000	      0.00000000	      0.00000000	      0.00000000	      0.00000000	      0.00000000	      0.00000000	      0.00000000	      0.00000000	      0.00000000	      0.00000000	      0.00000000	      0.00000000
      1.55000000	     -4.07958800	      9.63008391	    -84.80644088	      0.18077123	      0.92077565	      1.32894028	     17.62633732	      6.68609953	     -3.88469059	      7.90343417	      0.13794095	      2.98436508	      0.00000000	      0.00000000	     26.51076651	     -2.80558728	      6.28739820	     64.19348022	      1.12038759	     -3.38281846	      0.00000000	      0.00000000	      5.46507665	      2.04068069	     -0.80422652	      0.00000000	      0.00000000	      0.00000000	      0.00000000	      0.00000000	      0.00000000	      0.00000000	      0.00000000	      0.00000000	      0.00000000	      0.00000000	      0.00000000	      0.00000000	      0.00000000
      1.56000000	     -3.93379400	      9.63258498	    -84.79281664	      0.18026885	      0.92154043	      1.34110657	     16.44707313	      6.70227636	     -3.63030970	      7.30498602	      0.12749606	      3.46146916	      0.00000000	     -0.00000000	     28.04910254	     -2.36769819	      6.28646902	     63.68031828	      1.11143122	     -2.04414261	     -0.00000000	     -0.00000000	      5.35709636	      1.79454476	     -0.58742146	      0.00000000	     -0.00000000	     -0.00000000	      0.00000000	      0.00000000	     -0.00000000	     -0.00000000	     -0.00000000	      0.00000000	     -0.00000000	      0.00000000	      0.00000000	      0.00000000	      0.00000000
      1.57000000	     -3.83636461	      9.75733870	    -84.80863084	      0.17971798	      0.92195342	      1.35328718	     15.51484840	      6.71603305	     -3.90746928	      6.90442000	      0.12050486	      3.81500447	      0.00000000	      0.00000000	     29.62293068	     -2.05425100	      6.16373384	     62.82410804	      1.09648753	     -1.47574045	      0.00000000	      0.00000000	      5.42607337	      1.59816979	     -0.29430542	      0.00000000	      0.00000000	      0.00000000	      0.00000000	      0.00000000	      0.00000000	      0.00000000	      0.00000000	      0.00000000	      0.00000000	      0.00000000	      0.00000000	      0.00000000	      0.00000000
      1.58000000	     -3.69278974	      9.51807402	    -84.85961843	      0.17920641	      0.92260754	      1.36561616	     13.92799702	      6.80822474	     -3.09033779	      6.05272618	      0.10564000	      4.36955567	      0.00000000	      0.00000000	     30.72661665	     -1.71421679	      6.06042514	     61.79285514	      1.07848878	      0.27189483	      0.00000000	      0.00000000	      5.00356370	      1.39641334	      0.00372521	      0.00000000	      0.00000000	      0.00000000	      0.00000000	      0.00000000	      0.00000000	      0.00000000	      0.00000000	      0.00000000	      0.00000000	      0.00000000	      0.00000000	      0.00000000	      0.00000000
      1.59000000	     -3.56663969	      9.52818207	    -84.89941683	      0.17868590	      0.92273012	      1.37788446	     12.73927286	      6.84085848	     -2.81789367	      5.42885278	      0.09475136	      4.83400645	      0.00000000	      0.00000000	     32.00760598	     -1.42928539	      5.87488867	     60.43629535	      1.05481234	      1.21259679	      0.00000000	      0.00000000	      4.91422765	      1.18115390	      0.21647003	      0.00000000	      0.00000000	      0.00000000	      0.00000000	      0.00000000	      0.00000000	      0.00000000	      0.00000000	      0.00000000	      0.00000000	      0.00000000	      0.00000000	      0.00000000	      0.00000000
      1.60000000	     -3.46599977	      9.46452312	    -84.97448939	      0.17814382	      0.92270004	      1.39020082	     11.44112785	      6.91626495	     -2.47655734	      4.74497286	      0.08281540	      5.28985534	      0.00000000	      0.00000000	     33.11444943	     -1.23372509	      5.62674398	     58.83813132	      1.02691912	      2.08065561	      0.00000000	      0.00000000	      4.73666318	      1.01734244	      0.50661783	      0.00000000	      0.00000000	      0.00000000	      0.00000000	      0.00000000	      0.00000000	      0.00000000	      0.00000000	      0.00000000	      0.00000000	      0.00000000	      0.00000000	      0.00000000	      0.00000000
      1.61000000	     -3.38419160	      9.32199713	    -85.06504218	      0.17761967	      0.92255276	      1.40262256	     10.02373222	      7.01244678	     -2.12154106	      4.01164168	      0.07001636	      5.70497162	      0.00000000	      0.00000000	     34.02981237	     -1.10430699	      5.33695021	     56.98671640	      0.99460583	      2.79372971	      0.00000000	      0.00000000	      4.47609437	      0.87880924	      0.82408478	      0.00000000	      0.00000000	      0.00000000	      0.00000000	      0.00000000	      0.00000000	      0.00000000	      0.00000000	      0.00000000	      0.00000000	      0.00000000	      0.00000000	      0.00000000	      0.00000000
      1.62000000	     -3.29798075	      9.31773494	    -85.15671714	      0.17714613	      0.92197572	      1.41500730	      8.78842011	      7.07917389	     -1.69973041	      3.35339354	      0.05852776	      6.20017563	      0.00000000	      0.00000000	     34.99986246	     -0.96804825	      5.03240244	     54.90443337	      0.95826314	      3.43333501	      0.00000000	      0.00000000	      4.38026051	      0.73012215	      1.05423862	      0.00000000	      0.00000000	      0.00000000	      0.00000000	      0.00000000	      0.00000000	      0.00000000	      0.00000000	      0.00000000	      0.00000000	      0.00000000	      0.00000000	      0.00000000	      0.00000000
      1.63000000	     -3.24287816	      9.16721310	    -85.27668995	      0.17662574	      0.92134517	      1.42755471	      7.35115920	      7.19179844	     -1.29825010	      2.62501871	      0.04581522	      6.65939494	      0.00000000	      0.00000000	     35.70061901	     -0.94747499	      4.63478226	     52.59429704	      0.91794365	      3.89007087	      0.00000000	      0.00000000	      4.12014706	      0.63046156	      1.36881789	      0.00000000	      0.00000000	      0.00000000	      0.00000000	      0.00000000	      0.00000000	      0.00000000	      0.00000000	      0.00000000	      0.00000000	      0.00000000	      0.00000000	      0.00000000	      0.00000000
      1.64000000	     -3.18653781	      9.10164738	    -85.38253280	      0.17616496	      0.92036132	      1.44008506	      6.04372320	      7.27914503	     -0.87073683	      1.98059585	      0.03456792	      7.16499248	      0.00000000	      0.00000000	     36.38788765	     -0.91007941	      4.24531674	     50.05448384	      0.87361555	      4.21564990	      0.00000000	      0.00000000	      3.95823320	      0.51981963	      1.61142926	      0.00000000	      0.00000000	      0.00000000	      0.00000000	      0.00000000	      0.00000000	      0.00000000	      0.00000000	      0.00000000	      0.00000000	      0.00000000	      0.00000000	      0.00000000	      0.00000000
      1.65000000	     -3.14535208	      8.97527176	    -85.50341914	      0.17576968	      0.91922595	      1.45273625	      4.66688148	      7.37923149	     -0.43324812	      1.35313626	      0.02361668	      7.67901593	      0.00000000	     -0.00000000	     36.90152158	     -0.92352487	      3.79283730	     47.30973309	      0.82571061	      4.36089047	      0.00000000	      0.00000000	      3.72583342	      0.44598611	      1.87464644	      0.00000000	     -0.00000000	     -0.00000000	      0.00000000	      0.00000000	     -0.00000000	     -0.00000000	     -0.00000000	     -0.00000000	      0.00000000	      0.00000000	      0.00000000	      0.00000000	     -0.00000000
      1.66000000	     -3.10097509	      8.73897018	    -85.64165073	      0.17539713	      0.91801136	      1.46552141	      3.15162270	      7.47390093	      0.00014973	      0.69705633	      0.01216593	      8.17150863	      0.00000000	      0.00000000	     37.16362228	     -0.96281372	      3.31101794	     44.33498020	      0.77379138	      4.32188416	      0.00000000	      0.00000000	      3.36934674	      0.38050631	      2.13914877	      0.00000000	      0.00000000	      0.00000000	      0.00000000	      0.00000000	      0.00000000	      0.00000000	      0.00000000	      0.00000000	      0.00000000	      0.00000000	      0.00000000	      0.00000000	      0.00000000
      1.67000000	     -3.06403086	      8.79162157	    -85.77517353	      0.17508639	      0.91618359	      1.47818156	      2.05918731	      7.53828278	      0.39173812	      0.25654985	      0.00447764	      8.80629336	      0.00000000	      0.00000000	     37.65761039	     -0.97773565	      2.81726756	     41.19282452	      0.71895042	      4.16525430	      0.00000000	      0.00000000	      3.34646164	      0.30152524	      2.34491540	      0.00000000	      0.00000000	      0.00000000	      0.00000000	      0.00000000	      0.00000000	      0.00000000	      0.00000000	      0.00000000	      0.00000000	      0.00000000	      0.00000000	      0.00000000	      0.00000000
      1.68000000	     -3.03091766	      8.51905964	    -85.92840933	      0.17483406	      0.91459189	      1.49112606	      0.54797110	      7.62525017	      0.81187591	     -0.28588770	     -0.00498968	      9.34724112	      0.00000000	      0.00000000	     37.66699502	     -1.04726514	      2.26519210	     37.85618725	      0.66071511	      3.76871837	      0.00000000	      0.00000000	      2.94530288	      0.26469787	      2.58180006	      0.00000000	      0.00000000	      0.00000000	      0.00000000	      0.00000000	      0.00000000	      0.00000000	      0.00000000	      0.00000000	      0.00000000	      0.00000000	      0.00000000	      0.00000000	      0.00000000
      1.69000000	     -3.02418969	      8.59628536	    -86.10253471	      0.17461106	      0.91232975	      1.50388018	     -0.45845846	      7.69971382	      1.15406493	     -0.60017378	     -0.01047501	     10.02973173	      0.00000000	      0.00000000	     37.97396809	     -1.09734267	      1.75295301	     34.37623104	      0.59997842	      3.32468125	      0.00000000	      0.00000000	      2.94538023	      0.23177716	      2.79732228	      0.00000000	      0.00000000	      0.00000000	      0.00000000	      0.00000000	      0.00000000	      0.00000000	      0.00000000	      0.00000000	      0.00000000	      0.00000000	      0.00000000	      0.00000000	      0.00000000
